<svg xmlns="http://www.w3.org/2000/svg" viewBox="0 0 160 160" role="img" aria-labelledby="title desc">
  <title id="title">Radio array</title>
  <desc id="desc">Stylized radio dishes under a dark sky with signal arcs.</desc>
  <defs>
    <linearGradient id="sky" x1="0%" y1="0%" x2="0%" y2="100%">
      <stop offset="0%" stop-color="#0f172a"/>
      <stop offset="100%" stop-color="#111827"/>
    </linearGradient>
    <linearGradient id="ground" x1="0%" y1="0%" x2="100%" y2="0%">
      <stop offset="0%" stop-color="#0f766e"/>
      <stop offset="100%" stop-color="#14b8a6"/>
    </linearGradient>
  </defs>
  <rect width="160" height="160" rx="24" fill="url(#sky)"/>
  <path d="M0 116 C28 100 58 96 86 104 C114 112 138 124 160 118 V160 H0 Z" fill="url(#ground)"/>
  <g stroke="#e2e8f0" stroke-width="5" stroke-linecap="round" stroke-linejoin="round" fill="none">
    <path d="M34 100 Q52 70 74 84"/>
    <path d="M72 104 Q90 68 116 82"/>
    <path d="M108 110 Q124 78 144 92"/>
    <path d="M54 84 L60 120"/>
    <path d="M94 84 L100 124"/>
    <path d="M128 92 L134 126"/>
    <path d="M46 120 H74"/>
    <path d="M88 124 H112"/>
    <path d="M124 126 H144"/>
  </g>
  <g stroke="#67e8f9" stroke-width="4" fill="none" opacity="0.8">
    <path d="M84 46 Q110 26 136 34"/>
    <path d="M86 32 Q116 8 148 20"/>
  </g>
  <g fill="#ffffff" opacity="0.8">
    <circle cx="26" cy="28" r="2.2"/>
    <circle cx="54" cy="18" r="1.9"/>
    <circle cx="120" cy="26" r="2"/>
    <circle cx="140" cy="48" r="1.8"/>
  </g>
</svg>
